# xmcd
#
# Track frame offsets:
# 151
# 14234
# 29349
# 43338
# 59170
# 74581
# 86491
# 101166
# 112788
# 123781
# 140029
# 161044
# 173850
#
# Disc length: 2466 seconds
#
#
# Revision: 0
# Processed by: cddbd v1.5.2PL0 Copyright (c) Steve Scherf et al.
# Submitted via: FreeRIP 2.945 
#
DISCID=c209a00d
DTITLE=Heartland Xpress - Another Town
DYEAR=2007
DGENRE=Bluegrass
TTITLE0=Dream of the Past
TTITLE1=Sunny Side of the Mountain
TTITLE2=I'd Rather Be a Lonesome Pine
TTITLE3=Apron Stings
TTITLE4=Don't Cry Blue
TTITLE5=On and On
TTITLE6=Rebecca
TTITLE7=These Old Blues
TTITLE8=I'll Be Around Somewhere
TTITLE9=Walls of Time
TTITLE10=Everything I Used To Do
TTITLE11=Daniel Prayed
TTITLE12=Another Town
EXTD=
EXTT0=
EXTT1=
EXTT2=
EXTT3=
EXTT4=
EXTT5=
EXTT6=
EXTT7=
EXTT8=
EXTT9=
EXTT10=
EXTT11=
EXTT12=
PLAYORDER=
